# Rhino

g object_1
v 0.2596535086631775 8.807060241699219 0.925873339176178
v 0.1697689890861511 8.54198169708252 0.925873339176178
v 0.07988449931144714 8.27690315246582 0.925873339176178
v -0.009999999776482582 8.011824607849121 0.925873339176178
v 0.1922401189804077 8.608251571655273 1.435697317123413
v 0.2259468138217926 8.707655906677246 1.180785298347473
v 0.05741337314248085 8.210634231567383 1.09581458568573
v 0.1248267441987991 8.409442901611328 1.265756011009216
v 0.2691238522529602 8.803849220275879 0.925873339176178
v 0.134297102689743 8.406231880187988 0.925873339176178
v -0.0005296383751556277 8.008613586425781 0.925873339176178
v 0.2017104774713516 8.605040550231934 1.435697317123413
v 0.2354171723127365 8.704444885253906 1.180785298347473
v 0.06688373535871506 8.207422256469727 1.09581458568573
v 0.134297102689743 8.406231880187988 1.265756011009216
v 0.2596535086631775 8.807060241699219 0.925873339176178
v 0.2691238522529602 8.803849220275879 0.925873339176178
v -0.009999999776482582 8.011824607849121 0.925873339176178
v -0.0005296383751556277 8.008613586425781 0.925873339176178
v 0.1697689890861511 8.54198169708252 0.925873339176178
v 0.07988449931144714 8.27690315246582 0.925873339176178
v 0.134297102689743 8.406231880187988 0.925873339176178
v -0.009999999776482582 8.011824607849121 0.925873339176178
v -0.0005296383751556277 8.008613586425781 0.925873339176178
v 0.1922401189804077 8.608251571655273 1.435697317123413
v 0.2017104774713516 8.605040550231934 1.435697317123413
v 0.05741337314248085 8.210634231567383 1.09581458568573
v 0.1248267441987991 8.409442901611328 1.265756011009216
v 0.134297102689743 8.406231880187988 1.265756011009216
v 0.06688373535871506 8.207422256469727 1.09581458568573
v 0.1922401189804077 8.608251571655273 1.435697317123413
v 0.2017104774713516 8.605040550231934 1.435697317123413
v 0.2596535086631775 8.807060241699219 0.925873339176178
v 0.2691238522529602 8.803849220275879 0.925873339176178
v 0.2259468138217926 8.707655906677246 1.180785298347473
v 0.2354171723127365 8.704444885253906 1.180785298347473
vt 0.01942411623895168 0
vt 0.2907795608043671 0
vt 0.5621350407600403 0
vt 0.8334904909133911 0
vt 0.2229407131671906 0.4936791360378265
vt 0.121182419359684 0.2468395680189133
vt 0.6299739480018616 0.1645597070455551
vt 0.4264573156833649 0.3291194140911102
vt 0.01942411623895168 0.5048560500144958
vt 0.4264573156833649 0.5048560500144958
vt 0.8334904909133911 0.5048560500144958
vt 0.2229407131671906 0.99853515625
vt 0.121182419359684 0.7516955733299255
vt 0.6299739480018616 0.6694157719612122
vt 0.4264573156833649 0.8339754343032837
vt 0.01942411623895168 0.4951439797878265
vt 0.01942411623895168 0.5033912062644958
vt 0.8334904909133911 0.4951439797878265
vt 0.8334904909133911 0.5033912062644958
vt 0.2907795906066895 0.4951439797878265
vt 0.5621350407600403 0.4951439797878265
vt 0.4264573156833649 0.5033912062644958
vt 0.01795927248895168 0
vt 0.009712058119475842 0
vt 0.01795927248895168 0.7869443297386169
vt 0.009712058119475842 0.7869443297386169
vt 0.01795927248895168 0.2623147666454315
vt 0.01795927248895168 0.524629533290863
vt 0.009712058119475842 0.524629533290863
vt 0.009712058119475842 0.2623147666454315
vt 0.008247214369475842 0
vt 0 0
vt 0.008247214369475842 0.5354771018028259
vt 0 0.5354771018028259
vt 0.008247214369475842 0.267738550901413
vt 0 0.267738550901413
vn -0.9470361471176147 0.3211269378662109 0
vn -0.9470361471176147 0.3211269378662109 0
vn -0.9470361471176147 0.3211269378662109 3.11503539663041e-16
vn -0.9470361471176147 0.3211269378662109 -2.139134989129739e-16
vn -0.9470361471176147 0.3211269378662109 -5.704360323943031e-16
vn -0.9470361471176147 0.3211269378662109 -5.704360323943031e-16
vn -0.9470361471176147 0.3211269378662109 0
vn -0.9470361471176147 0.3211269378662109 0
vn 0.9470361471176147 -0.3211269378662109 0
vn 0.9470361471176147 -0.3211269378662109 0
vn 0.9470361471176147 -0.3211269378662109 2.228265751540246e-16
vn 0.9470361471176147 -0.3211269378662109 -5.704360323943031e-16
vn 0.9470361471176147 -0.3211269378662109 5.704360323943031e-16
vn 0.9470361471176147 -0.3211269378662109 0
vn 0.9470361471176147 -0.3211269378662109 0
vn 0 0 -1
vn 0 0 -1
vn 0 0 -1
vn 0 0 -1
vn 0 0 -1
vn 0 0 -1
vn 0 0 -1
vn -0.2020524889230728 -0.5958734750747681 0.7772448658943176
vn -0.2020524889230728 -0.5958734750747681 0.7772448658943176
vn -0.2020524889230728 -0.5958734750747681 0.7772448658943176
vn -0.2020524889230728 -0.5958734750747681 0.7772448658943176
vn -0.2020524889230728 -0.5958734750747681 0.7772448658943176
vn -0.2020524889230728 -0.5958734750747681 0.7772448658943176
vn -0.2020524889230728 -0.5958734750747681 0.7772448658943176
vn -0.2020524889230728 -0.5958734750747681 0.7772448658943176
vn 0.2969390451908112 0.8757035732269287 0.3807497918605804
vn 0.2969390451908112 0.8757035732269287 0.3807497918605804
vn 0.2969390451908112 0.8757035732269287 0.3807497918605804
vn 0.2969390451908112 0.8757035732269287 0.3807497918605804
vn 0.2969390451908112 0.8757035732269287 0.3807497918605804
vn 0.2969390451908112 0.8757035732269287 0.3807497918605804
f 7/7/7 3/3/3 4/4/4
f 6/6/6 1/1/1 2/2/2
f 2/2/2 3/3/3 8/8/8
f 2/2/2 8/8/8 6/6/6
f 8/8/8 5/5/5 6/6/6
f 7/7/7 8/8/8 3/3/3
f 14/14/14 11/11/11 10/10/10
f 13/13/13 10/10/10 9/9/9
f 13/13/13 15/15/15 14/14/14
f 15/15/15 13/13/13 12/12/12
f 10/10/10 13/13/13 14/14/14
f 16/16/16 17/17/17 22/22/22 20/20/20
f 21/21/21 22/22/22 19/19/19 18/18/18
f 20/20/20 22/22/22 21/21/21
f 27/27/27 23/23/23 24/24/24 30/30/30
f 30/30/30 29/29/29 28/28/28 27/27/27
f 25/25/25 28/28/28 29/29/29 26/26/26
f 32/32/32 36/36/36 35/35/35 31/31/31
f 33/33/33 35/35/35 36/36/36 34/34/34
